<svg xmlns="http://www.w3.org/2000/svg" viewBox="0 0 600 800" font-family="Georgia, 'Times New Roman', serif">
  <!-- Ang Mga Pahina ni Lola — an inherited library: spines, and one pressed flower -->
  <rect width="600" height="800" fill="#F8F5F1"/>
  <!-- shelf of spines -->
  <g>
    <rect x="90" y="140" width="52" height="260" fill="#5C3B28"/>
    <rect x="148" y="170" width="40" height="230" fill="#B56A44"/>
    <rect x="194" y="120" width="60" height="280" fill="#2E7D5B"/>
    <rect x="260" y="155" width="36" height="245" fill="#D4A646"/>
    <rect x="302" y="135" width="56" height="265" fill="#B56A44"/>
    <rect x="364" y="175" width="42" height="225" fill="#5C3B28"/>
    <rect x="412" y="128" width="50" height="272" fill="#2E7D5B"/>
    <rect x="468" y="160" width="42" height="240" fill="#D4A646"/>
  </g>
  <!-- one book pulled, leaning -->
  <g transform="rotate(-8 540 400)">
    <rect x="512" y="150" width="46" height="250" fill="#33210F"/>
    <rect x="512" y="180" width="46" height="6" fill="#D4A646"/>
  </g>
  <rect x="70" y="400" width="460" height="10" fill="#33210F"/>
  <!-- pressed flower falling from the pages -->
  <g transform="translate(300,470)" fill="#B56A44" opacity="0.9">
    <ellipse rx="8" ry="16"/><ellipse rx="8" ry="16" transform="rotate(72)"/>
    <ellipse rx="8" ry="16" transform="rotate(144)"/><ellipse rx="8" ry="16" transform="rotate(216)"/>
    <ellipse rx="8" ry="16" transform="rotate(288)"/><circle r="5" fill="#D4A646"/>
  </g>
  <text x="300" y="96" text-anchor="middle" font-size="17" letter-spacing="8" fill="#B56A44">KATHA</text>
  <text x="300" y="600" text-anchor="middle" font-size="46" font-weight="bold" fill="#33210F">Ang Mga Pahina</text>
  <text x="300" y="656" text-anchor="middle" font-size="46" font-weight="bold" fill="#33210F">ni Lola</text>
  <text x="300" y="710" text-anchor="middle" font-size="20" font-style="italic" fill="#5C3B28">Hankerism</text>
  <text x="300" y="762" text-anchor="middle" font-size="12" letter-spacing="5" fill="#B56A44" opacity="0.8">A KATHA NOVEL</text>
</svg>
