<svg xmlns="http://www.w3.org/2000/svg" viewBox="0 0 600 800" font-family="Georgia, 'Times New Roman', serif">
  <!-- SLICE OF LIFE · a light study: 5:41, the window doing its work -->
  <rect width="600" height="800" fill="#26180D"/>
  <!-- the window, high and quiet -->
  <rect x="330" y="90" width="200" height="260" fill="#E9C87A"/>
  <line x1="430" y1="90" x2="430" y2="350" stroke="#26180D" stroke-width="10"/>
  <line x1="330" y1="220" x2="530" y2="220" stroke="#26180D" stroke-width="10"/>
  <!-- the light, crossing the room in one long parallelogram -->
  <path d="M330 350 L530 350 L360 720 L110 720 Z" fill="#E9C87A" opacity="0.20"/>
  <path d="M380 350 L480 350 L300 720 L200 720 Z" fill="#E9C87A" opacity="0.16"/>
  <!-- the table edge receiving it -->
  <rect x="60" y="720" width="480" height="10" fill="#F8F5F1" opacity="0.9"/>
  <!-- the cup, in the exact middle of the light -->
  <g transform="translate(240,668)">
    <rect x="0" y="14" width="52" height="40" rx="8" fill="#F8F5F1"/>
    <path d="M52 24 q24 8 0 22" fill="none" stroke="#F8F5F1" stroke-width="7"/>
    <path d="M14 6 q6 -12 0 -22 M32 6 q6 -12 0 -22" fill="none" stroke="#E9C87A" stroke-width="3.5" opacity="0.85"/>
    <ellipse cx="26" cy="60" rx="46" ry="7" fill="#E9C87A" opacity="0.25"/>
  </g>
  <text x="64" y="130" font-size="14" letter-spacing="8" fill="#D4A646">KATHA · SLICE OF LIFE</text>
  <text x="64" y="230" font-size="60" font-weight="bold" fill="#F8F5F1">Liwanag</text>
  <text x="64" y="300" font-size="44" font-style="italic" fill="#D4A646">sa</text>
  <text x="64" y="378" font-size="60" font-weight="bold" fill="#F8F5F1">Kusina</text>
  <text x="64" y="440" font-size="19" font-style="italic" fill="#E9C87A" opacity="0.9">Hankerism</text>
  <text x="64" y="480" font-size="14" fill="#F8F5F1" opacity="0.5">5:41, give or take the season</text>
</svg>
